<svg preserveAspectRatio="none" overflow="visible" style="display: block;" width="71.9875" height="38.8357" viewBox="0 0 71.9875 38.8357" fill="none" xmlns="http://www.w3.org/2000/svg">
<path id="Vector" d="M51.7658 35.9972L57.5567 33.1533L48.162 28.6004L42.2976 31.4068C40.9479 32.0621 40.2731 32.8275 40.2731 33.7029C40.2731 34.5783 40.9479 35.3431 42.2976 35.9972C43.6472 36.6512 45.2253 36.9783 47.0317 36.9783C48.8381 36.9783 50.4162 36.6512 51.7658 35.9972ZM60.2238 31.8626L66.0882 29.0562C67.4379 28.4022 68.1011 27.6374 68.0779 26.762C68.0547 25.8865 67.3669 25.1212 66.0147 24.4658C64.665 23.8368 63.0999 23.516 61.3193 23.5035C59.5386 23.491 57.9722 23.8118 56.62 24.4658L50.8291 27.3097L60.2238 31.8626ZM54.4561 37.3347C52.3658 38.3477 49.8794 38.8479 46.9969 38.8354C44.1117 38.8229 41.6253 38.3227 39.5376 37.3347C37.4963 36.3217 36.4641 35.1167 36.4409 33.7198C36.4176 32.3228 37.4499 31.1179 39.5376 30.1049L53.9336 23.1264C55.9722 22.1384 58.4587 21.6444 61.3928 21.6444C64.3244 21.6444 66.8108 22.1384 68.8521 23.1264C70.9424 24.1394 71.9875 25.345 71.9875 26.7432C71.9875 28.1414 70.9424 29.3464 68.8521 30.3581L54.4561 37.3347ZM6.25541 33.7667C4.52124 33.7667 3.04513 33.4715 1.82708 32.8812C0.609026 32.291 0 31.5762 0 30.7371V6.78148C0 5.94356 0.609026 5.22883 1.82708 4.63729C3.04513 4.047 4.52124 3.75185 6.25541 3.75185H24.4487C24.0952 2.79388 24.5675 1.92908 25.8655 1.15745C27.161 0.385816 28.8616 0 30.9674 0C33.1222 0 34.8486 0.385816 36.1467 1.15745C37.4447 1.92908 37.8925 2.79388 37.4899 3.75185H55.6832C57.4122 3.75185 58.887 4.047 60.1077 4.63729C61.3257 5.22758 61.9347 5.94294 61.9347 6.78335V16.5044C61.2896 16.4681 60.6444 16.4619 59.9993 16.4856C59.3541 16.5094 58.709 16.5444 58.0638 16.5907V6.78335C58.0638 6.44568 57.8406 6.16867 57.3942 5.95232C56.9477 5.73596 56.3774 5.62778 55.6832 5.62778H6.25154C5.55735 5.62778 4.98704 5.73596 4.54059 5.95232C4.09414 6.16867 3.87092 6.44568 3.87092 6.78335V30.7371C3.87092 31.0735 4.09414 31.3499 4.54059 31.5662C4.98704 31.7826 5.55864 31.8908 6.25541 31.8908H26.121C25.9765 32.2034 25.8797 32.5161 25.8307 32.8287C25.7816 33.1414 25.7945 33.454 25.8694 33.7667H6.25541ZM33.0499 4.18332C33.597 3.91694 33.8706 3.58052 33.8706 3.17407C33.8706 2.76762 33.597 2.43183 33.0499 2.1667C32.5028 1.90156 31.8087 1.76837 30.9674 1.76712C30.1261 1.76587 29.4332 1.89906 28.8887 2.1667C28.3442 2.43433 28.0693 2.77012 28.0642 3.17407C28.059 3.57802 28.3339 3.91443 28.8887 4.18332C29.4435 4.4522 30.1364 4.58477 30.9674 4.58101C31.7983 4.57726 32.4925 4.4447 33.0499 4.18332ZM13.5482 12.625V10.7491H48.3865V12.625H13.5482ZM13.5482 19.6972V17.8213H48.3865V18.5867C48.0201 18.7192 47.682 18.8506 47.3723 18.9806C47.0627 19.1107 46.7233 19.2651 46.3543 19.444L45.8356 19.6972H13.5482ZM13.5482 26.7695V24.8936H35.1131L34.0177 25.4226C33.5532 25.6477 33.0977 25.8722 32.6512 26.096C32.2074 26.3174 31.7751 26.5412 31.3545 26.7676L13.5482 26.7695Z" fill="white" fill-opacity="0.33"/>
</svg>
